<svg width="32" height="33" viewBox="0 0 32 33" fill="none" xmlns="http://www.w3.org/2000/svg">
<g clip-path="url(#clip0_1854_639)">
<path opacity="0.3" d="M12.1332 7.16667L6.6665 12.6333V20.3667L12.1332 25.8333H19.8665L25.3332 20.3667V12.6333L19.8665 7.16667H12.1332ZM15.9998 23.1667C15.2665 23.1667 14.6665 22.5667 14.6665 21.8333C14.6665 21.1 15.2665 20.5 15.9998 20.5C16.7332 20.5 17.3332 21.1 17.3332 21.8333C17.3332 22.5667 16.7332 23.1667 15.9998 23.1667ZM17.3332 19.1667H14.6665V9.83334H17.3332V19.1667Z" fill="#4C7663"/>
<path d="M20.9733 4.5H11.0267L4 11.5267V21.4733L11.0267 28.5H20.9733L28 21.4733V11.5267L20.9733 4.5ZM25.3333 20.3667L19.8667 25.8333H12.1333L6.66667 20.3667V12.6333L12.1333 7.16667H19.8667L25.3333 12.6333V20.3667Z" fill="#4C7663"/>
<path d="M15.9998 23.1667C16.7362 23.1667 17.3332 22.5697 17.3332 21.8333C17.3332 21.097 16.7362 20.5 15.9998 20.5C15.2635 20.5 14.6665 21.097 14.6665 21.8333C14.6665 22.5697 15.2635 23.1667 15.9998 23.1667Z" fill="#4C7663"/>
<path d="M14.6665 9.83333H17.3332V19.1667H14.6665V9.83333Z" fill="#4C7663"/>
</g>
<defs>
<clipPath id="clip0_1854_639">
<rect width="32" height="32" fill="white" transform="translate(0 0.5)"/>
</clipPath>
</defs>
</svg>
