<svg width="208" height="173" viewBox="0 0 208 173" fill="none" xmlns="http://www.w3.org/2000/svg">
<path fill-rule="evenodd" clip-rule="evenodd" d="M13.5302 75.1933C12.6568 71.9336 14.5913 68.583 17.851 67.7095L143.589 34.0182C146.848 33.1448 150.199 35.0792 151.072 38.339L174.004 123.922C174.878 127.182 172.943 130.532 169.683 131.406L43.9459 165.097C40.6861 165.97 37.3355 164.036 36.4621 160.776L13.5302 75.1933ZM17.0936 74.7576C16.6569 73.1277 17.6241 71.4524 19.254 71.0157L70.853 57.1898L71.4629 59.466C71.6813 60.2809 72.5189 60.7645 73.3339 60.5462L87.9591 56.6273C88.7741 56.409 89.2577 55.5713 89.0393 54.7564L88.4294 52.4802L143.774 37.6505C145.404 37.2138 147.08 38.181 147.516 39.8109L170.189 124.426C170.626 126.055 169.658 127.731 168.028 128.167L43.5079 161.533C41.878 161.969 40.2027 161.002 39.766 159.372L17.0936 74.7576Z" fill="#93BBC2"/>
<rect x="29.7648" y="94.2285" width="2.61122" height="21.1235" rx="1.30561" transform="rotate(165 29.7648 94.2285)" fill="white"/>
<circle opacity="0.5" cx="77.9925" cy="103.55" r="3.62064" transform="rotate(-15 77.9925 103.55)" fill="#FBBBA4"/>
<path opacity="0.5" d="M96.5823 103.109L104.074 101.102L106.221 109.114C106.657 110.744 105.69 112.419 104.06 112.856L102.471 113.282C100.841 113.718 99.1658 112.751 98.729 111.121L96.5823 103.109Z" fill="#FBBBA4"/>
<circle opacity="0.5" cx="109.935" cy="94.9918" r="3.62064" transform="rotate(-15 109.935 94.9918)" fill="#FBBBA4"/>
<path d="M81.9974 91.9913C81.5206 91.716 80.9105 91.8795 80.6352 92.3563L79.2448 94.7646L76.8368 93.3743C76.36 93.099 75.7499 93.2625 75.4746 93.7394C75.1993 94.2162 75.3628 94.8263 75.8396 95.1016L78.2475 96.4918L76.8575 98.8994C76.5822 99.3763 76.7457 99.9864 77.2225 100.262C77.5656 100.46 77.9777 100.431 78.2846 100.221C78.4042 100.139 78.5076 100.03 78.5848 99.8967L79.9748 97.4891L82.3827 98.8793C82.8596 99.1546 83.4697 98.9911 83.745 98.5143C84.0203 98.0375 83.8568 97.4273 83.38 97.152L80.9721 95.7618L82.3625 93.3535C82.6378 92.8767 82.4743 92.2666 81.9974 91.9913Z" fill="#8F9793"/>
<path d="M107.585 85.1351C107.108 84.8598 106.498 85.0233 106.223 85.5001L104.832 87.9084L102.424 86.5181C101.948 86.2429 101.338 86.4063 101.062 86.8832C100.787 87.36 100.95 87.9701 101.427 88.2454L103.835 89.6356L102.445 92.0432C102.17 92.5201 102.333 93.1302 102.81 93.4055C103.153 93.6036 103.565 93.5745 103.872 93.3646C103.992 93.2832 104.095 93.1742 104.172 93.0405L105.562 90.6329L107.97 92.0231C108.447 92.2984 109.057 92.1349 109.333 91.6581C109.608 91.1813 109.444 90.5711 108.968 90.2958L106.56 88.9056L107.95 86.4973C108.225 86.0205 108.062 85.4104 107.585 85.1351Z" fill="#8F9793"/>
<rect x="82.6145" y="106.061" width="25.8271" height="1.52762" rx="0.76381" transform="rotate(-15 82.6145 106.061)" fill="#8F9793"/>
<circle cx="1.9133" cy="150.913" r="1.9133" fill="#D2DDD8"/>
<circle cx="6.9133" cy="136.913" r="1.9133" fill="#A5BBB1"/>
<circle cx="190.993" cy="14.3281" r="2.15821" fill="#9C9CDB"/>
<path d="M200.083 20.2265C201.1 18.5984 201.661 16.727 201.708 14.8078C201.755 12.8886 201.286 10.992 200.349 9.31618C199.413 7.64035 198.043 6.2468 196.384 5.28111C194.725 4.31542 192.837 3.81303 190.917 3.82643C188.997 3.83984 187.116 4.36854 185.471 5.3573C183.825 6.34606 182.475 7.7586 181.562 9.44734C180.649 11.1361 180.206 13.039 180.28 14.9574C180.354 16.8758 180.941 18.7392 181.981 20.3529" stroke="#4C7663" stroke-width="2" stroke-linecap="round" stroke-linejoin="round"/>
<path d="M196.339 17.886C196.937 16.9283 197.268 15.8274 197.295 14.6984C197.323 13.5694 197.047 12.4537 196.496 11.4679C195.945 10.482 195.139 9.66226 194.163 9.09417C193.187 8.52609 192.076 8.23055 190.947 8.23843C189.818 8.24632 188.711 8.55734 187.743 9.13899C186.775 9.72065 185.981 10.5516 185.444 11.545C184.907 12.5385 184.646 13.6579 184.69 14.7864C184.733 15.9149 185.079 17.0111 185.69 17.9604" stroke="#4C7663" stroke-width="2" stroke-linecap="round" stroke-linejoin="round"/>
<path d="M164.19 40.1121C167.047 40.552 171.028 40.6125 175.052 39.7233M190.731 23.4648C190.31 26.2468 189.483 28.5998 188.361 30.5829" stroke="#9C9CDB" stroke-width="2" stroke-linecap="round" stroke-linejoin="round"/>
<path d="M185.98 32.6958C185.591 32.3065 184.959 32.3065 184.57 32.6958L182.604 34.6621L180.638 32.6961C180.248 32.3067 179.617 32.3067 179.227 32.6961C178.838 33.0854 178.838 33.717 179.227 34.1064L181.193 36.0724L179.228 38.0382C178.838 38.4276 178.838 39.0592 179.228 39.4485C179.508 39.7287 179.913 39.8072 180.264 39.684C180.401 39.6363 180.529 39.5577 180.638 39.4485L182.604 37.4827L184.57 39.4488C184.959 39.8381 185.591 39.8381 185.98 39.4488C186.369 39.0595 186.369 38.4278 185.98 38.0385L184.014 36.0724L185.98 34.1061C186.37 33.7168 186.37 33.0851 185.98 32.6958Z" fill="#4C7663"/>
<circle cx="159.913" cy="1.9133" r="1.9133" fill="#A5BBB1"/>
<circle cx="199.211" cy="61.3528" r="1.9133" fill="#D2DDD8"/>
<path d="M27.9998 162.402L186.412 119.956L188.098 126.249C188.67 128.383 187.403 130.577 185.269 131.148L34.585 171.524C32.4512 172.096 30.2578 170.83 29.686 168.696L27.9998 162.402Z" fill="#B1D6DC"/>
<path d="M94.1187 144.686L116.347 138.729L116.704 140.059C116.989 141.126 116.356 142.222 115.289 142.508L96.9244 147.429C95.8574 147.715 94.7608 147.082 94.4749 146.015L94.1187 144.686Z" fill="#93BBC2"/>
</svg>
