<svg width="24" height="24" viewBox="0 0 24 24" fill="none" xmlns="http://www.w3.org/2000/svg">
<g clip-path="url(#clip0_116_18416)">
<path d="M10.01 11H0V13H10.01V16L14 12L10.01 8V11Z" fill="#4C7663"/>
<path fill-rule="evenodd" clip-rule="evenodd" d="M1.45898 9C2.7342 4.94425 6.52566 2 11.0006 2C16.5206 2 21.0006 6.48 21.0006 12C21.0006 17.52 16.5206 22 11.0006 22C6.52566 22 2.7342 19.0557 1.45898 15H3.5846C4.77417 17.9287 7.65083 20 11.0006 20C15.4106 20 19.0006 16.41 19.0006 12C19.0006 7.59 15.4106 4 11.0006 4C7.65083 4 4.77417 6.07133 3.5846 9H1.45898Z" fill="#4C7663"/>
</g>
<defs>
<clipPath id="clip0_116_18416">
<rect width="24" height="24" fill="white"/>
</clipPath>
</defs>
</svg>
