<svg width="18" height="20" viewBox="0 0 18 20" fill="none" xmlns="http://www.w3.org/2000/svg">
<path opacity="0.4" d="M13.191 0H4.81C1.77 0 0 1.78 0 4.83V15.16C0 18.26 1.77 20 4.81 20H13.191C16.28 20 18 18.26 18 15.16V4.83C18 1.78 16.28 0 13.191 0Z" fill="#4C7663"/>
<path fill-rule="evenodd" clip-rule="evenodd" d="M5.07996 4.65039V4.66039C4.64896 4.66039 4.29996 5.01039 4.29996 5.44039C4.29996 5.87039 4.64896 6.22039 5.07996 6.22039H8.06896C8.49996 6.22039 8.84996 5.87039 8.84996 5.42939C8.84996 5.00039 8.49996 4.65039 8.06896 4.65039H5.07996ZM12.9198 10.7407H5.0798C4.6488 10.7407 4.2998 10.3907 4.2998 9.96069C4.2998 9.53069 4.6488 9.17969 5.0798 9.17969H12.9198C13.3498 9.17969 13.6998 9.53069 13.6998 9.96069C13.6998 10.3907 13.3498 10.7407 12.9198 10.7407ZM12.92 15.3104H5.07996C4.77996 15.3504 4.48996 15.2004 4.32996 14.9504C4.16996 14.6904 4.16996 14.3604 4.32996 14.1104C4.48996 13.8504 4.77996 13.7104 5.07996 13.7404H12.92C13.319 13.7804 13.62 14.1204 13.62 14.5304C13.62 14.9294 13.319 15.2704 12.92 15.3104Z" fill="#4C7663"/>
</svg>
