<svg width="30" height="31" viewBox="0 0 30 31" fill="none" xmlns="http://www.w3.org/2000/svg">
    <g clip-path="url(#clip0_396_11425)">
        <circle cx="15" cy="15.8408" r="14" fill="#EEEEEE" stroke="#8D8D8D" stroke-width="2" />
        <mask id="path-2-inside-1_396_11425" fill="white">
            <path
                    fill-rule="evenodd"
                    clip-rule="evenodd"
                    d="M3.75 25.7627V25.2158C3.75 21.4752 11.2453 19.5908 15 19.5908C18.7547 19.5908 26.25 21.4752 26.25 25.2158V25.7627C23.5015 28.8767 19.4801 30.8408 15 30.8408C10.5199 30.8408 6.49854 28.8767 3.75 25.7627ZM15 7.09082C11.8922 7.09082 9.375 9.60801 9.375 12.7158C9.375 15.8236 11.8922 18.3408 15 18.3408C18.1078 18.3408 20.625 15.8236 20.625 12.7158C20.625 9.60801 18.1078 7.09082 15 7.09082Z"
            />
        </mask>
        <path
                fill-rule="evenodd"
                clip-rule="evenodd"
                d="M3.75 25.7627V25.2158C3.75 21.4752 11.2453 19.5908 15 19.5908C18.7547 19.5908 26.25 21.4752 26.25 25.2158V25.7627C23.5015 28.8767 19.4801 30.8408 15 30.8408C10.5199 30.8408 6.49854 28.8767 3.75 25.7627ZM15 7.09082C11.8922 7.09082 9.375 9.60801 9.375 12.7158C9.375 15.8236 11.8922 18.3408 15 18.3408C18.1078 18.3408 20.625 15.8236 20.625 12.7158C20.625 9.60801 18.1078 7.09082 15 7.09082Z"
                fill="#EEEEEE"
        />
        <path
                d="M3.75 25.7627H1.75V26.519L2.25052 27.0861L3.75 25.7627ZM26.25 25.7627L27.7495 27.0861L28.25 26.519V25.7627H26.25ZM5.75 25.7627V25.2158H1.75V25.7627H5.75ZM5.75 25.2158C5.75 25.0152 5.8346 24.6915 6.33626 24.2285C6.85151 23.753 7.66121 23.2776 8.71073 22.8572C10.813 22.015 13.3727 21.5908 15 21.5908V17.5908C12.8726 17.5908 9.80732 18.1088 7.22325 19.144C5.92961 19.6623 4.63081 20.3593 3.62335 21.2891C2.60231 22.2315 1.75 23.5461 1.75 25.2158H5.75ZM15 21.5908C16.6273 21.5908 19.187 22.015 21.2893 22.8572C22.3388 23.2776 23.1485 23.753 23.6637 24.2285C24.1654 24.6915 24.25 25.0152 24.25 25.2158H28.25C28.25 23.5461 27.3977 22.2315 26.3766 21.2891C25.3692 20.3593 24.0704 19.6623 22.7767 19.144C20.1927 18.1088 17.1274 17.5908 15 17.5908V21.5908ZM24.25 25.2158V25.7627H28.25V25.2158H24.25ZM24.7505 24.4392C22.3655 27.1414 18.8825 28.8408 15 28.8408V32.8408C20.0777 32.8408 24.6374 30.6121 27.7495 27.0861L24.7505 24.4392ZM15 28.8408C11.1175 28.8408 7.63447 27.1414 5.24948 24.4392L2.25052 27.0861C5.36261 30.6121 9.92227 32.8408 15 32.8408V28.8408ZM11.375 12.7158C11.375 10.7126 12.9968 9.09082 15 9.09082V5.09082C10.7876 5.09082 7.375 8.50344 7.375 12.7158H11.375ZM15 16.3408C12.9968 16.3408 11.375 14.7191 11.375 12.7158H7.375C7.375 16.9282 10.7876 20.3408 15 20.3408V16.3408ZM18.625 12.7158C18.625 14.7191 17.0032 16.3408 15 16.3408V20.3408C19.2124 20.3408 22.625 16.9282 22.625 12.7158H18.625ZM15 9.09082C17.0032 9.09082 18.625 10.7126 18.625 12.7158H22.625C22.625 8.50344 19.2124 5.09082 15 5.09082V9.09082Z"
                fill="#8D8D8D"
                mask="url(#path-2-inside-1_396_11425)"
        />
    </g>
    <defs>
        <clipPath id="clip0_396_11425">
            <rect width="30" height="30" fill="white" transform="translate(0 0.84082)" />
        </clipPath>
    </defs>
</svg>