<svg viewBox="0 0 25 24" fill="none" xmlns="http://www.w3.org/2000/svg">
    <path d="M6.47998 4H5.47998C4.94955 4 4.44084 4.21071 4.06577 4.58579C3.69069 4.96086 3.47998 5.46957 3.47998 6V9.5C3.47998 10.9587 4.05944 12.3576 5.09089 13.3891C6.12234 14.4205 7.52129 15 8.97998 15C10.4387 15 11.8376 14.4205 12.8691 13.3891C13.9005 12.3576 14.48 10.9587 14.48 9.5V6C14.48 5.46957 14.2693 4.96086 13.8942 4.58579C13.5191 4.21071 13.0104 4 12.48 4H11.48"
          fill="currentColor" fill-opacity="0.3"/>
    <path fill-rule="evenodd" clip-rule="evenodd"
          d="M11.48 2C12.0323 2 12.48 2.44772 12.48 3C13.2756 3 14.0387 3.31607 14.6013 3.87868C15.1639 4.44129 15.48 5.20435 15.48 6V9.5C15.48 11.2239 14.7952 12.8772 13.5762 14.0962C12.3572 15.3152 10.7039 16 8.97998 16C7.25607 16 5.60277 15.3152 4.38379 14.0962C3.1648 12.8772 2.47998 11.2239 2.47998 9.5V6C2.47998 5.20435 2.79605 4.44129 3.35866 3.87868C3.92127 3.31607 4.68433 3 5.47998 3C5.47998 2.44772 5.9277 2 6.47998 2C7.03227 2 7.47998 2.44772 7.47998 3V4V5C7.47998 5.55229 7.03227 6 6.47998 6C5.9277 6 5.47998 5.55229 5.47998 5C5.21476 5 4.96041 5.10536 4.77287 5.29289C4.58534 5.48043 4.47998 5.73478 4.47998 6V9.5C4.47998 10.6935 4.95409 11.8381 5.798 12.682C6.64191 13.5259 7.78651 14 8.97998 14C10.1735 14 11.318 13.5259 12.162 12.682C13.0059 11.8381 13.48 10.6935 13.48 9.5V6C13.48 5.73478 13.3746 5.48043 13.1871 5.29289C12.9995 5.10536 12.7452 5 12.48 5C12.48 5.55229 12.0323 6 11.48 6C10.9277 6 10.48 5.55229 10.48 5V4.00099L10.48 4L10.48 3.99901V3C10.48 2.44772 10.9277 2 11.48 2Z"
          fill="currentColor"/>
    <path fill-rule="evenodd" clip-rule="evenodd"
          d="M19.48 10C19.48 9.44772 19.9277 9 20.48 9C21.0323 9 21.48 9.44772 21.48 10C21.48 10.5521 21.0326 10.9997 20.4805 11C20.4804 11 20.4802 11 20.48 11C19.9277 11 19.48 10.5523 19.48 10ZM19.48 12.8293C18.3148 12.4175 17.48 11.3062 17.48 10C17.48 8.34315 18.8231 7 20.48 7C22.1368 7 23.48 8.34315 23.48 10C23.48 11.3062 22.6452 12.4175 21.48 12.8293V15C21.48 15.9193 21.2989 16.8295 20.9471 17.6788C20.5954 18.5281 20.0797 19.2997 19.4297 19.9497C18.7797 20.5998 18.008 21.1154 17.1588 21.4672C16.3095 21.8189 15.3992 22 14.48 22C13.5607 22 12.6505 21.8189 11.8012 21.4672C10.9519 21.1154 10.1802 20.5998 9.53023 19.9497C8.88022 19.2997 8.36461 18.5281 8.01282 17.6788C7.66104 16.8295 7.47998 15.9193 7.47998 15C7.47998 14.4477 7.9277 14 8.47998 14C9.03227 14 9.47998 14.4477 9.47998 15C9.47998 15.6566 9.60931 16.3068 9.86058 16.9134C10.1119 17.52 10.4802 18.0712 10.9444 18.5355C11.4087 18.9998 11.9599 19.3681 12.5666 19.6194C13.1732 19.8707 13.8234 20 14.48 20C15.1366 20 15.7868 19.8707 16.3934 19.6194C17 19.3681 17.5512 18.9998 18.0155 18.5355C18.4798 18.0712 18.8481 17.52 19.0994 16.9134C19.3507 16.3068 19.48 15.6566 19.48 15V12.8293Z"
          fill="currentColor"/>
</svg>
