<svg width="823" height="117" fill="none" xmlns="http://www.w3.org/2000/svg"><g clip-path="url(#a)"><path fill="#EDEFF1" d="M0 0h823v117H0z"/><path fill="#fff" d="m674.5-713 14 14-2043.8 2044-14-14.1zM716.8-670.7l14 14-2043.8 2044-14.1-14.1zM759.1-628.5l14.1 14-2043.9 2044-14-14zM801.4-586.2l14 14.1-2043.8 2043.9-14-14zM843.6-544l14 14.1-2043.8 2044-14-14.1zM885.9-501.6l14 14-2043.8 2044-14.1-14.1zM928.2-459.4l14.1 14-2043.9 2044-14-14zM970.5-417l14 14-2043.8 2043.9-14-14zM1012.7-374.8l14 14-2043.8 2044-14-14.1zM1055-332.5l14 14-2043.8 2044-14.1-14.1zM1097.3-290.3l14 14.1-2043.8 2043.9-14-14zM1139.6-248l14 14.1L-890.1 1810l-14.1-14zM1181.8-205.7l14 14-2043.8 2044-14-14.1zM1224-163.4l14.1 14-2043.9 2044-14-14.1zM1266.4-121.2l14 14-2043.8 2044-14-14zM1308.7-78.9l14 14.1L-721 1979.1l-14.1-14zM1350.9-36.6l14 14-2043.8 2044-14.1-14.1zM1393.2 5.7l14 14-2043.9 2044-14-14.1zM1435.5 48l14 14-2043.8 2043.9-14-14zM1477.8 90.2l14 14.1L-552 2148.2l-14.1-14z"/></g><defs><clipPath id="a"><path fill="#fff" d="M0 0h823v117H0z"/></clipPath></defs></svg>